<svg xmlns="http://www.w3.org/2000/svg" width="3.07cm" height="3.07cm" preserveAspectRatio="none" version="1.1" viewBox="0 0 29 29"><g id="QRcode"><rect width="29" height="29" x="0" y="0" fill="#fff"/><g id="Pattern" transform="translate(4,4)"><rect width="1" height="1" x="0" y="0" fill="#000"/><rect width="1" height="1" x="1" y="0" fill="#000"/><rect width="1" height="1" x="2" y="0" fill="#000"/><rect width="1" height="1" x="3" y="0" fill="#000"/><rect width="1" height="1" x="4" y="0" fill="#000"/><rect width="1" height="1" x="5" y="0" fill="#000"/><rect width="1" height="1" x="6" y="0" fill="#000"/><rect width="1" height="1" x="9" y="0" fill="#000"/><rect width="1" height="1" x="12" y="0" fill="#000"/><rect width="1" height="1" x="14" y="0" fill="#000"/><rect width="1" height="1" x="15" y="0" fill="#000"/><rect width="1" height="1" x="16" y="0" fill="#000"/><rect width="1" height="1" x="17" y="0" fill="#000"/><rect width="1" height="1" x="18" y="0" fill="#000"/><rect width="1" height="1" x="19" y="0" fill="#000"/><rect width="1" height="1" x="20" y="0" fill="#000"/><rect width="1" height="1" x="0" y="1" fill="#000"/><rect width="1" height="1" x="6" y="1" fill="#000"/><rect width="1" height="1" x="9" y="1" fill="#000"/><rect width="1" height="1" x="10" y="1" fill="#000"/><rect width="1" height="1" x="11" y="1" fill="#000"/><rect width="1" height="1" x="14" y="1" fill="#000"/><rect width="1" height="1" x="20" y="1" fill="#000"/><rect width="1" height="1" x="0" y="2" fill="#000"/><rect width="1" height="1" x="2" y="2" fill="#000"/><rect width="1" height="1" x="3" y="2" fill="#000"/><rect width="1" height="1" x="4" y="2" fill="#000"/><rect width="1" height="1" x="6" y="2" fill="#000"/><rect width="1" height="1" x="8" y="2" fill="#000"/><rect width="1" height="1" x="9" y="2" fill="#000"/><rect width="1" height="1" x="12" y="2" fill="#000"/><rect width="1" height="1" x="14" y="2" fill="#000"/><rect width="1" height="1" x="16" y="2" fill="#000"/><rect width="1" height="1" x="17" y="2" fill="#000"/><rect width="1" height="1" x="18" y="2" fill="#000"/><rect width="1" height="1" x="20" y="2" fill="#000"/><rect width="1" height="1" x="0" y="3" fill="#000"/><rect width="1" height="1" x="2" y="3" fill="#000"/><rect width="1" height="1" x="3" y="3" fill="#000"/><rect width="1" height="1" x="4" y="3" fill="#000"/><rect width="1" height="1" x="6" y="3" fill="#000"/><rect width="1" height="1" x="9" y="3" fill="#000"/><rect width="1" height="1" x="11" y="3" fill="#000"/><rect width="1" height="1" x="12" y="3" fill="#000"/><rect width="1" height="1" x="14" y="3" fill="#000"/><rect width="1" height="1" x="16" y="3" fill="#000"/><rect width="1" height="1" x="17" y="3" fill="#000"/><rect width="1" height="1" x="18" y="3" fill="#000"/><rect width="1" height="1" x="20" y="3" fill="#000"/><rect width="1" height="1" x="0" y="4" fill="#000"/><rect width="1" height="1" x="2" y="4" fill="#000"/><rect width="1" height="1" x="3" y="4" fill="#000"/><rect width="1" height="1" x="4" y="4" fill="#000"/><rect width="1" height="1" x="6" y="4" fill="#000"/><rect width="1" height="1" x="10" y="4" fill="#000"/><rect width="1" height="1" x="14" y="4" fill="#000"/><rect width="1" height="1" x="16" y="4" fill="#000"/><rect width="1" height="1" x="17" y="4" fill="#000"/><rect width="1" height="1" x="18" y="4" fill="#000"/><rect width="1" height="1" x="20" y="4" fill="#000"/><rect width="1" height="1" x="0" y="5" fill="#000"/><rect width="1" height="1" x="6" y="5" fill="#000"/><rect width="1" height="1" x="14" y="5" fill="#000"/><rect width="1" height="1" x="20" y="5" fill="#000"/><rect width="1" height="1" x="0" y="6" fill="#000"/><rect width="1" height="1" x="1" y="6" fill="#000"/><rect width="1" height="1" x="2" y="6" fill="#000"/><rect width="1" height="1" x="3" y="6" fill="#000"/><rect width="1" height="1" x="4" y="6" fill="#000"/><rect width="1" height="1" x="5" y="6" fill="#000"/><rect width="1" height="1" x="6" y="6" fill="#000"/><rect width="1" height="1" x="8" y="6" fill="#000"/><rect width="1" height="1" x="10" y="6" fill="#000"/><rect width="1" height="1" x="12" y="6" fill="#000"/><rect width="1" height="1" x="14" y="6" fill="#000"/><rect width="1" height="1" x="15" y="6" fill="#000"/><rect width="1" height="1" x="16" y="6" fill="#000"/><rect width="1" height="1" x="17" y="6" fill="#000"/><rect width="1" height="1" x="18" y="6" fill="#000"/><rect width="1" height="1" x="19" y="6" fill="#000"/><rect width="1" height="1" x="20" y="6" fill="#000"/><rect width="1" height="1" x="8" y="7" fill="#000"/><rect width="1" height="1" x="9" y="7" fill="#000"/><rect width="1" height="1" x="12" y="7" fill="#000"/><rect width="1" height="1" x="0" y="8" fill="#000"/><rect width="1" height="1" x="1" y="8" fill="#000"/><rect width="1" height="1" x="2" y="8" fill="#000"/><rect width="1" height="1" x="4" y="8" fill="#000"/><rect width="1" height="1" x="5" y="8" fill="#000"/><rect width="1" height="1" x="6" y="8" fill="#000"/><rect width="1" height="1" x="7" y="8" fill="#000"/><rect width="1" height="1" x="8" y="8" fill="#000"/><rect width="1" height="1" x="9" y="8" fill="#000"/><rect width="1" height="1" x="10" y="8" fill="#000"/><rect width="1" height="1" x="12" y="8" fill="#000"/><rect width="1" height="1" x="13" y="8" fill="#000"/><rect width="1" height="1" x="14" y="8" fill="#000"/><rect width="1" height="1" x="18" y="8" fill="#000"/><rect width="1" height="1" x="0" y="9" fill="#000"/><rect width="1" height="1" x="7" y="9" fill="#000"/><rect width="1" height="1" x="8" y="9" fill="#000"/><rect width="1" height="1" x="9" y="9" fill="#000"/><rect width="1" height="1" x="12" y="9" fill="#000"/><rect width="1" height="1" x="14" y="9" fill="#000"/><rect width="1" height="1" x="15" y="9" fill="#000"/><rect width="1" height="1" x="16" y="9" fill="#000"/><rect width="1" height="1" x="20" y="9" fill="#000"/><rect width="1" height="1" x="0" y="10" fill="#000"/><rect width="1" height="1" x="5" y="10" fill="#000"/><rect width="1" height="1" x="6" y="10" fill="#000"/><rect width="1" height="1" x="11" y="10" fill="#000"/><rect width="1" height="1" x="12" y="10" fill="#000"/><rect width="1" height="1" x="13" y="10" fill="#000"/><rect width="1" height="1" x="16" y="10" fill="#000"/><rect width="1" height="1" x="18" y="10" fill="#000"/><rect width="1" height="1" x="19" y="10" fill="#000"/><rect width="1" height="1" x="20" y="10" fill="#000"/><rect width="1" height="1" x="0" y="11" fill="#000"/><rect width="1" height="1" x="2" y="11" fill="#000"/><rect width="1" height="1" x="4" y="11" fill="#000"/><rect width="1" height="1" x="7" y="11" fill="#000"/><rect width="1" height="1" x="9" y="11" fill="#000"/><rect width="1" height="1" x="10" y="11" fill="#000"/><rect width="1" height="1" x="11" y="11" fill="#000"/><rect width="1" height="1" x="12" y="11" fill="#000"/><rect width="1" height="1" x="16" y="11" fill="#000"/><rect width="1" height="1" x="19" y="11" fill="#000"/><rect width="1" height="1" x="3" y="12" fill="#000"/><rect width="1" height="1" x="4" y="12" fill="#000"/><rect width="1" height="1" x="6" y="12" fill="#000"/><rect width="1" height="1" x="8" y="12" fill="#000"/><rect width="1" height="1" x="10" y="12" fill="#000"/><rect width="1" height="1" x="11" y="12" fill="#000"/><rect width="1" height="1" x="15" y="12" fill="#000"/><rect width="1" height="1" x="17" y="12" fill="#000"/><rect width="1" height="1" x="8" y="13" fill="#000"/><rect width="1" height="1" x="9" y="13" fill="#000"/><rect width="1" height="1" x="11" y="13" fill="#000"/><rect width="1" height="1" x="12" y="13" fill="#000"/><rect width="1" height="1" x="14" y="13" fill="#000"/><rect width="1" height="1" x="15" y="13" fill="#000"/><rect width="1" height="1" x="16" y="13" fill="#000"/><rect width="1" height="1" x="19" y="13" fill="#000"/><rect width="1" height="1" x="20" y="13" fill="#000"/><rect width="1" height="1" x="0" y="14" fill="#000"/><rect width="1" height="1" x="1" y="14" fill="#000"/><rect width="1" height="1" x="2" y="14" fill="#000"/><rect width="1" height="1" x="3" y="14" fill="#000"/><rect width="1" height="1" x="4" y="14" fill="#000"/><rect width="1" height="1" x="5" y="14" fill="#000"/><rect width="1" height="1" x="6" y="14" fill="#000"/><rect width="1" height="1" x="8" y="14" fill="#000"/><rect width="1" height="1" x="12" y="14" fill="#000"/><rect width="1" height="1" x="14" y="14" fill="#000"/><rect width="1" height="1" x="16" y="14" fill="#000"/><rect width="1" height="1" x="18" y="14" fill="#000"/><rect width="1" height="1" x="19" y="14" fill="#000"/><rect width="1" height="1" x="20" y="14" fill="#000"/><rect width="1" height="1" x="0" y="15" fill="#000"/><rect width="1" height="1" x="6" y="15" fill="#000"/><rect width="1" height="1" x="8" y="15" fill="#000"/><rect width="1" height="1" x="9" y="15" fill="#000"/><rect width="1" height="1" x="10" y="15" fill="#000"/><rect width="1" height="1" x="11" y="15" fill="#000"/><rect width="1" height="1" x="15" y="15" fill="#000"/><rect width="1" height="1" x="16" y="15" fill="#000"/><rect width="1" height="1" x="20" y="15" fill="#000"/><rect width="1" height="1" x="0" y="16" fill="#000"/><rect width="1" height="1" x="2" y="16" fill="#000"/><rect width="1" height="1" x="3" y="16" fill="#000"/><rect width="1" height="1" x="4" y="16" fill="#000"/><rect width="1" height="1" x="6" y="16" fill="#000"/><rect width="1" height="1" x="8" y="16" fill="#000"/><rect width="1" height="1" x="9" y="16" fill="#000"/><rect width="1" height="1" x="11" y="16" fill="#000"/><rect width="1" height="1" x="12" y="16" fill="#000"/><rect width="1" height="1" x="17" y="16" fill="#000"/><rect width="1" height="1" x="19" y="16" fill="#000"/><rect width="1" height="1" x="0" y="17" fill="#000"/><rect width="1" height="1" x="2" y="17" fill="#000"/><rect width="1" height="1" x="3" y="17" fill="#000"/><rect width="1" height="1" x="4" y="17" fill="#000"/><rect width="1" height="1" x="6" y="17" fill="#000"/><rect width="1" height="1" x="11" y="17" fill="#000"/><rect width="1" height="1" x="12" y="17" fill="#000"/><rect width="1" height="1" x="16" y="17" fill="#000"/><rect width="1" height="1" x="17" y="17" fill="#000"/><rect width="1" height="1" x="19" y="17" fill="#000"/><rect width="1" height="1" x="0" y="18" fill="#000"/><rect width="1" height="1" x="2" y="18" fill="#000"/><rect width="1" height="1" x="3" y="18" fill="#000"/><rect width="1" height="1" x="4" y="18" fill="#000"/><rect width="1" height="1" x="6" y="18" fill="#000"/><rect width="1" height="1" x="8" y="18" fill="#000"/><rect width="1" height="1" x="9" y="18" fill="#000"/><rect width="1" height="1" x="11" y="18" fill="#000"/><rect width="1" height="1" x="12" y="18" fill="#000"/><rect width="1" height="1" x="13" y="18" fill="#000"/><rect width="1" height="1" x="14" y="18" fill="#000"/><rect width="1" height="1" x="16" y="18" fill="#000"/><rect width="1" height="1" x="18" y="18" fill="#000"/><rect width="1" height="1" x="20" y="18" fill="#000"/><rect width="1" height="1" x="0" y="19" fill="#000"/><rect width="1" height="1" x="6" y="19" fill="#000"/><rect width="1" height="1" x="8" y="19" fill="#000"/><rect width="1" height="1" x="11" y="19" fill="#000"/><rect width="1" height="1" x="12" y="19" fill="#000"/><rect width="1" height="1" x="16" y="19" fill="#000"/><rect width="1" height="1" x="19" y="19" fill="#000"/><rect width="1" height="1" x="0" y="20" fill="#000"/><rect width="1" height="1" x="1" y="20" fill="#000"/><rect width="1" height="1" x="2" y="20" fill="#000"/><rect width="1" height="1" x="3" y="20" fill="#000"/><rect width="1" height="1" x="4" y="20" fill="#000"/><rect width="1" height="1" x="5" y="20" fill="#000"/><rect width="1" height="1" x="6" y="20" fill="#000"/><rect width="1" height="1" x="8" y="20" fill="#000"/><rect width="1" height="1" x="10" y="20" fill="#000"/><rect width="1" height="1" x="12" y="20" fill="#000"/><rect width="1" height="1" x="13" y="20" fill="#000"/><rect width="1" height="1" x="16" y="20" fill="#000"/><rect width="1" height="1" x="17" y="20" fill="#000"/><rect width="1" height="1" x="19" y="20" fill="#000"/><rect width="1" height="1" x="20" y="20" fill="#000"/></g></g></svg>